<?xml version="1.0"?>
<svg xmlns="http://www.w3.org/2000/svg" xmlns:xlink="http://www.w3.org/1999/xlink" version="1.1" id="Capa_1" x="0px" y="0px" viewBox="0 0 469.333 469.333" style="enable-background:new 0 0 469.333 469.333;" xml:space="preserve" width="512px" height="512px"><g><g>
	<g>
		<g>
			<path d="M426.667,0h-384C19.146,0,0,19.135,0,42.667v384c0,23.531,19.146,42.667,42.667,42.667h384     c23.521,0,42.667-19.135,42.667-42.667v-384C469.333,19.135,450.188,0,426.667,0z M448,426.667     c0,11.76-9.563,21.333-21.333,21.333h-384c-11.771,0-21.333-9.573-21.333-21.333v-320H448V426.667z M448,85.333H21.333V42.667     c0-11.76,9.563-21.333,21.333-21.333h384c11.771,0,21.333,9.573,21.333,21.333V85.333z" data-original="#000000" class="active-path" data-old_color="#000000" fill="#FFFFFF"/>
			<circle cx="53.333" cy="53.333" r="10.667" data-original="#000000" class="active-path" data-old_color="#000000" fill="#FFFFFF"/>
			<circle cx="96" cy="53.333" r="10.667" data-original="#000000" class="active-path" data-old_color="#000000" fill="#FFFFFF"/>
			<circle cx="138.667" cy="53.333" r="10.667" data-original="#000000" class="active-path" data-old_color="#000000" fill="#FFFFFF"/>
			<path d="M85.333,341.333H384c23.521,0,42.667-19.135,42.667-42.667V256c0-23.531-19.146-42.667-42.667-42.667H85.333     c-23.521,0-42.667,19.135-42.667,42.667v42.667C42.667,322.198,61.812,341.333,85.333,341.333z M64,256     c0-11.76,9.563-21.333,21.333-21.333H384c11.771,0,21.333,9.573,21.333,21.333v42.667c0,11.76-9.563,21.333-21.333,21.333H85.333     C73.562,320,64,310.427,64,298.667V256z" data-original="#000000" class="active-path" data-old_color="#000000" fill="#FFFFFF"/>
			<path d="M88.458,295.542c2.083,2.083,4.813,3.125,7.542,3.125c2.729,0,5.458-1.042,7.542-3.125l3.125-3.125l3.125,3.125     c2.083,2.083,4.813,3.125,7.542,3.125c2.729,0,5.458-1.042,7.542-3.125c4.167-4.167,4.167-10.917,0-15.083l-3.125-3.125     l3.125-3.125c4.167-4.167,4.167-10.917,0-15.083c-4.167-4.167-10.917-4.167-15.083,0l-3.125,3.125l-3.125-3.125     c-4.167-4.167-10.917-4.167-15.083,0c-4.167,4.167-4.167,10.917,0,15.083l3.125,3.125l-3.125,3.125     C84.292,284.625,84.292,291.375,88.458,295.542z" data-original="#000000" class="active-path" data-old_color="#000000" fill="#FFFFFF"/>
			<path d="M152.458,295.542c2.083,2.083,4.813,3.125,7.542,3.125c2.729,0,5.458-1.042,7.542-3.125l3.125-3.125l3.125,3.125     c2.083,2.083,4.813,3.125,7.542,3.125c2.729,0,5.458-1.042,7.542-3.125c4.167-4.167,4.167-10.917,0-15.083l-3.125-3.125     l3.125-3.125c4.167-4.167,4.167-10.917,0-15.083c-4.167-4.167-10.917-4.167-15.083,0l-3.125,3.125l-3.125-3.125     c-4.167-4.167-10.917-4.167-15.083,0c-4.167,4.167-4.167,10.917,0,15.083l3.125,3.125l-3.125,3.125     C148.292,284.625,148.292,291.375,152.458,295.542z" data-original="#000000" class="active-path" data-old_color="#000000" fill="#FFFFFF"/>
			<path d="M216.458,295.542c2.083,2.083,4.813,3.125,7.542,3.125c2.729,0,5.458-1.042,7.542-3.125l3.125-3.125l3.125,3.125     c2.083,2.083,4.813,3.125,7.542,3.125c2.729,0,5.458-1.042,7.542-3.125c4.167-4.167,4.167-10.917,0-15.083l-3.125-3.125     l3.125-3.125c4.167-4.167,4.167-10.917,0-15.083c-4.167-4.167-10.917-4.167-15.083,0l-3.125,3.125l-3.125-3.125     c-4.167-4.167-10.917-4.167-15.083,0c-4.167,4.167-4.167,10.917,0,15.083l3.125,3.125l-3.125,3.125     C212.292,284.625,212.292,291.375,216.458,295.542z" data-original="#000000" class="active-path" data-old_color="#000000" fill="#FFFFFF"/>
			<path d="M280.458,295.542c2.083,2.083,4.813,3.125,7.542,3.125c2.729,0,5.458-1.042,7.542-3.125l3.125-3.125l3.125,3.125     c2.083,2.083,4.813,3.125,7.542,3.125c2.729,0,5.458-1.042,7.542-3.125c4.167-4.167,4.167-10.917,0-15.083l-3.125-3.125     l3.125-3.125c4.167-4.167,4.167-10.917,0-15.083c-4.167-4.167-10.917-4.167-15.083,0l-3.125,3.125l-3.125-3.125     c-4.167-4.167-10.917-4.167-15.083,0c-4.167,4.167-4.167,10.917,0,15.083l3.125,3.125l-3.125,3.125     C276.292,284.625,276.292,291.375,280.458,295.542z" data-original="#000000" class="active-path" data-old_color="#000000" fill="#FFFFFF"/>
			<path d="M352,298.667h21.333c5.896,0,10.667-4.771,10.667-10.667c0-5.896-4.771-10.667-10.667-10.667H352     c-5.896,0-10.667,4.771-10.667,10.667C341.333,293.896,346.104,298.667,352,298.667z" data-original="#000000" class="active-path" data-old_color="#000000" fill="#FFFFFF"/>
		</g>
	</g>
</g></g> </svg>
