<svg
    xmlns="http://www.w3.org/2000/svg"
    viewBox="0 0 512 512"
    id="vector">
    <path 
        fill="white"
        id="path"
        d="M 484.078 27.923 C 466.071 9.918 442.131 0.002 416.666 0.002 L 95.333 0 C 42.765 0.003 -0.001 42.77 0.002 95.334 L 0 416.668 C 0.002 469.234 42.769 512 95.334 512 L 416.666 512 C 469.233 512 512 469.234 512 416.667 L 512 95.336 C 512.001 69.87 502.085 45.929 484.078 27.923 Z M 482 416.667 L 482 416.667 C 482 452.692 452.691 482 416.666 482 L 95.334 482 C 59.31 482 30.001 452.691 30 416.667 L 30.002 95.333 C 30 59.31 59.309 30.002 95.334 30 L 416.666 30.002 C 434.118 30.002 450.525 36.797 462.865 49.136 C 475.205 61.476 482.001 77.882 482 95.334 L 482 416.667 Z"
        />
    <path
        fill="white"
        id="path_1"
        d="M 346.132 180.317 L 266.605 100.792 C 263.792 97.979 259.977 96.399 255.999 96.399 C 252.02 96.399 248.205 97.98 245.392 100.793 L 165.865 180.323 C 160.007 186.181 160.007 195.678 165.865 201.536 C 168.793 204.466 172.632 205.93 176.471 205.93 C 180.31 205.93 184.149 204.465 187.078 201.536 L 240.996 147.616 L 240.998 307.626 C 240.998 315.911 247.714 322.626 255.998 322.626 C 264.282 322.626 270.998 315.91 270.998 307.626 L 270.996 147.609 L 324.919 201.531 C 330.776 207.388 340.274 207.389 346.132 201.53 C 351.99 195.672 351.99 186.175 346.132 180.317 Z"
        />
    <path 
        fill="white"
        id="path_2"
        d="M 400.602 385.601 L 111.402 385.601 C 103.118 385.601 96.402 392.317 96.402 400.601 C 96.402 408.885 103.118 415.601 111.402 415.601 L 400.602 415.601 C 408.886 415.601 415.602 408.885 415.602 400.601 C 415.602 392.316 408.886 385.601 400.602 385.601 Z"
        />
</svg>
